<svg width="20" height="20"
     viewBox="0 0 20 20"
     fill="none"
     stroke="white"
     stroke-width="1.5"
     stroke-linecap="round"
     stroke-linejoin="round"
     xmlns="http://www.w3.org/2000/svg">
    <path d="M14.1666 2.1665H5.83329C3.53211 2.1665 1.66663 4.03198 1.66663 6.33317V14.6665C1.66663 16.9677 3.53211 18.8332 5.83329 18.8332H14.1666C16.4678 18.8332 18.3333 16.9677 18.3333 14.6665V6.33317C18.3333 4.03198 16.4678 2.1665 14.1666 2.1665Z"/>
    <path d="M13.3334 9.97476C13.4362 10.6683 13.3178 11.3766 12.9948 11.9989C12.6719 12.6213 12.161 13.1259 11.5347 13.4412C10.9085 13.7564 10.1987 13.8661 9.50653 13.7547C8.81431 13.6433 8.17484 13.3165 7.67907 12.8207C7.1833 12.325 6.85648 11.6855 6.7451 10.9933C6.63371 10.3011 6.74343 9.59134 7.05865 8.96507C7.37386 8.33881 7.87853 7.82788 8.50086 7.50496C9.12319 7.18205 9.8315 7.06359 10.525 7.16643C11.2325 7.27133 11.8874 7.60098 12.3931 8.10669C12.8988 8.61239 13.2285 9.26733 13.3334 9.97476Z"/>
    <path d="M14.5834 5.9165H14.5917" />
</svg>
