<svg width="20" height="20" viewBox="0 0 20 20"
     fill="none"
     stroke="white"
     stroke-width="1.5"
     stroke-linecap="round"
     stroke-linejoin="round"
     xmlns="http://www.w3.org/2000/svg">
    <path d="M19.1667 3.00008C18.3687 3.56298 17.4851 3.9935 16.55 4.27508C16.0482 3.698 15.3812 3.28899 14.6392 3.10335C13.8973 2.91771 13.1163 2.96441 12.4018 3.23712C11.6873 3.50984 11.0737 3.99541 10.6442 4.62818C10.2146 5.26094 9.98979 6.01036 10 6.77508V7.60841C8.53557 7.64639 7.08444 7.32159 5.77588 6.66295C4.46733 6.00431 3.34197 5.03228 2.50004 3.83341C2.50004 3.83341 -0.833293 11.3334 6.66671 14.6667C4.95048 15.8317 2.906 16.4159 0.833374 16.3334C8.33337 20.5001 17.5 16.3334 17.5 6.75008C17.4993 6.51796 17.477 6.28641 17.4334 6.05841C18.2839 5.21966 18.8841 4.16067 19.1667 3.00008V3.00008Z"/>
</svg>
